<svg width="1440" height="969" viewBox="0 0 1440 969" fill="none" xmlns="http://www.w3.org/2000/svg">
<path d="M589.666 -257.35L711.45 572.471L756.835 -257.35H589.666Z" fill="#01A41B"/>
<path d="M919.165 -281L714.547 571.06L1074.05 -220.127L919.165 -281Z" fill="#01A41B"/>
<path d="M1266.22 -111.265L716.296 570.975L1380.09 10.0935L1266.22 -111.265Z" fill="#01A41B"/>
<path d="M1507.1 190.792L717.911 571.648L1558 349.233L1507.1 190.792Z" fill="#01A41B"/>
<path d="M1595.35 566.921L719.083 572.948L1573.46 731.891L1595.35 566.921Z" fill="#01A41B"/>
<path d="M1513.94 944.59L719.585 574.624L1423.48 1084.27L1513.94 944.59Z" fill="#01A41B"/>
<path d="M1278.58 1250.97L719.32 576.354L1137 1338.43L1278.58 1250.97Z" fill="#01A41B"/>
<path d="M934.656 1426.97L718.339 577.804L769.258 1445.34L934.656 1426.97Z" fill="#01A41B"/>
<path d="M548.491 1438.66L716.833 578.693L391.168 1384.4L548.491 1438.66Z" fill="#01A41B"/>
<path d="M194.553 1283.77L715.09 578.852L75.6448 1167.35L194.553 1283.77Z" fill="#01A41B"/>
<path d="M-58.9031 992.191L713.447 578.248L-116.466 836.048L-58.9031 992.191Z" fill="#01A41B"/>
<path d="M-163 620.138L712.221 577L-148.118 454.388L-163 620.138Z" fill="#01A41B"/>
<path d="M-97.6638 239.36L711.649 575.346L-13.2058 95.9686L-97.6638 239.36Z" fill="#01A41B"/>
<path d="M124.506 -76.7108L711.84 573.606L262.253 -170.093L124.506 -76.7108Z" fill="#01A41B"/>
</svg>
