<svg width="24" height="25" viewBox="0 0 24 25" fill="none" xmlns="http://www.w3.org/2000/svg">
<g id="LinkedinLogo">
<path id="Vector" d="M20.25 2.75H3.75C3.35218 2.75 2.97064 2.90804 2.68934 3.18934C2.40804 3.47064 2.25 3.85218 2.25 4.25V20.75C2.25 21.1478 2.40804 21.5294 2.68934 21.8107C2.97064 22.092 3.35218 22.25 3.75 22.25H20.25C20.6478 22.25 21.0294 22.092 21.3107 21.8107C21.592 21.5294 21.75 21.1478 21.75 20.75V4.25C21.75 3.85218 21.592 3.47064 21.3107 3.18934C21.0294 2.90804 20.6478 2.75 20.25 2.75ZM9 17C9 17.1989 8.92098 17.3897 8.78033 17.5303C8.63968 17.671 8.44891 17.75 8.25 17.75C8.05109 17.75 7.86032 17.671 7.71967 17.5303C7.57902 17.3897 7.5 17.1989 7.5 17V11C7.5 10.8011 7.57902 10.6103 7.71967 10.4697C7.86032 10.329 8.05109 10.25 8.25 10.25C8.44891 10.25 8.63968 10.329 8.78033 10.4697C8.92098 10.6103 9 10.8011 9 11V17ZM8.25 9.5C8.0275 9.5 7.80999 9.43402 7.62498 9.3104C7.43998 9.18679 7.29578 9.01109 7.21064 8.80552C7.12549 8.59995 7.10321 8.37375 7.14662 8.15552C7.19002 7.93729 7.29717 7.73684 7.4545 7.5795C7.61184 7.42217 7.81229 7.31502 8.03052 7.27162C8.24875 7.22821 8.47495 7.25049 8.68052 7.33564C8.88609 7.42078 9.06179 7.56498 9.1854 7.74998C9.30902 7.93499 9.375 8.1525 9.375 8.375C9.375 8.67337 9.25647 8.95952 9.0455 9.1705C8.83452 9.38147 8.54837 9.5 8.25 9.5ZM17.25 17C17.25 17.1989 17.171 17.3897 17.0303 17.5303C16.8897 17.671 16.6989 17.75 16.5 17.75C16.3011 17.75 16.1103 17.671 15.9697 17.5303C15.829 17.3897 15.75 17.1989 15.75 17V13.625C15.75 13.1277 15.5525 12.6508 15.2008 12.2992C14.8492 11.9475 14.3723 11.75 13.875 11.75C13.3777 11.75 12.9008 11.9475 12.5492 12.2992C12.1975 12.6508 12 13.1277 12 13.625V17C12 17.1989 11.921 17.3897 11.7803 17.5303C11.6397 17.671 11.4489 17.75 11.25 17.75C11.0511 17.75 10.8603 17.671 10.7197 17.5303C10.579 17.3897 10.5 17.1989 10.5 17V11C10.5009 10.8163 10.5693 10.6393 10.692 10.5026C10.8148 10.366 10.9834 10.2791 11.166 10.2585C11.3485 10.2379 11.5323 10.2851 11.6824 10.391C11.8325 10.4969 11.9385 10.6542 11.9803 10.8331C12.4877 10.4889 13.0792 10.2895 13.6914 10.2561C14.3036 10.2228 14.9133 10.3568 15.455 10.6438C15.9968 10.9308 16.4501 11.36 16.7664 11.8852C17.0826 12.4105 17.2498 13.0119 17.25 13.625V17Z" fill="white"/>
</g>
</svg>
