<svg width="45" height="24" viewBox="0 0 45 24" fill="none" xmlns="http://www.w3.org/2000/svg">
<path d="M3.40565 18H1.83765V6.432H3.40565V11.408H9.13365V6.432H10.7017V18H9.13365V12.864H3.40565V18ZM12.6165 14.08C12.6165 11.664 14.3445 9.968 16.6965 9.968C19.0325 9.968 20.7605 11.664 20.7605 14.08C20.7605 16.496 19.0325 18.192 16.6965 18.192C14.3445 18.192 12.6165 16.496 12.6165 14.08ZM14.1365 14.08C14.1365 15.712 15.1765 16.848 16.6965 16.848C18.2005 16.848 19.2565 15.712 19.2565 14.08C19.2565 12.448 18.2005 11.312 16.6965 11.312C15.1765 11.312 14.1365 12.448 14.1365 14.08ZM23.9294 18H22.4254V10.176H23.7694L23.9134 11.2C24.3134 10.464 25.1454 9.952 26.2494 9.952C27.4654 9.952 28.3294 10.56 28.7294 11.536C29.0974 10.56 30.0414 9.952 31.2574 9.952C33.0494 9.952 34.1374 11.072 34.1374 12.88V18H32.6654V13.248C32.6654 12.016 31.9774 11.312 30.9214 11.312C29.7854 11.312 29.0334 12.112 29.0334 13.36V18H27.5454V13.232C27.5454 12 26.8734 11.328 25.8174 11.328C24.6814 11.328 23.9294 12.112 23.9294 13.36V18ZM39.5983 18.192C37.2943 18.192 35.7103 16.528 35.7103 14.096C35.7103 11.648 37.2623 9.952 39.5343 9.952C41.7583 9.952 43.2143 11.488 43.2143 13.808V14.368L37.1663 14.384C37.2783 16.032 38.1423 16.944 39.6303 16.944C40.7983 16.944 41.5663 16.464 41.8223 15.568H43.2303C42.8463 17.248 41.5343 18.192 39.5983 18.192ZM39.5343 11.216C38.2223 11.216 37.3903 12 37.1983 13.376H41.7103C41.7103 12.08 40.8623 11.216 39.5343 11.216Z" fill="#01CD22"/>
</svg>
